<svg xmlns="http://www.w3.org/2000/svg" viewBox="0 0 320.94 108.01"><title>Home-header-logo</title><g id="Calque_2" data-name="Calque 2"><g id="Layer_1" data-name="Layer 1"><path d="M108.27,5.68H119a.38.38,0,0,0,.43-.44V.52A.38.38,0,0,0,119,.09H102.91a.38.38,0,0,0-.43.43V28.6a.38.38,0,0,0,.43.44H119a.38.38,0,0,0,.43-.44V23.88a.38.38,0,0,0-.43-.43H108.27V17.28H119a.38.38,0,0,0,.43-.43V12.13a.38.38,0,0,0-.43-.44H108.27ZM100,8.34a8.64,8.64,0,0,0-2.78-5.82A8.3,8.3,0,0,0,91.28.09H89.83a8.21,8.21,0,0,0-6.07,2.65,8.5,8.5,0,0,0-2.59,6.12,8.15,8.15,0,0,0,2.56,5.94,8.4,8.4,0,0,0,6.1,2.54h1.45a2.83,2.83,0,0,1,2.1.87,2.89,2.89,0,0,1,.85,2.11,3.14,3.14,0,0,1-.88,2.19,2.75,2.75,0,0,1-2.07.94H89.83a2.77,2.77,0,0,1-2.07-.75,2.87,2.87,0,0,1-.8-1.91.43.43,0,0,0-.46-.44H81.58a.39.39,0,0,0-.44.44,8.79,8.79,0,0,0,2.65,5.89,8.32,8.32,0,0,0,6,2.36h1.45a8.16,8.16,0,0,0,6.13-2.65,8.8,8.8,0,0,0,2.52-6.27,8,8,0,0,0-2.53-5.85,8.36,8.36,0,0,0-6.12-2.51H89.83a2.63,2.63,0,0,1-2-.86A2.93,2.93,0,0,1,87,8.83a3.27,3.27,0,0,1,.88-2.14,2.53,2.53,0,0,1,1.93-1h1.45a2.74,2.74,0,0,1,2,.84,2.49,2.49,0,0,1,.85,1.82c0,.29.19.43.44.43h5a.38.38,0,0,0,.43-.43M71.3,11.87h-3V5.68h3a2.69,2.69,0,0,1,2.06.91,3,3,0,0,1,.83,2.13,3.25,3.25,0,0,1-.83,2.18,2.62,2.62,0,0,1-2.06,1m8.43,16.65-5-11.75a8.67,8.67,0,0,0,5.29-8,8.4,8.4,0,0,0-2.54-6.14A8.36,8.36,0,0,0,71.3.09H63a.38.38,0,0,0-.43.43V28.6A.38.38,0,0,0,63,29h4.92a.39.39,0,0,0,.44-.44V17.46h.43l4.78,11.23a.5.5,0,0,0,.52.35h5.37c.36,0,.47-.17.31-.52M53.5.52V17.46c0,3.78-1,5.78-3,6l-.41,0-.4,0c-2-.21-3-2.06-3-5.56V.52a.38.38,0,0,0-.44-.43H41.31a.38.38,0,0,0-.44.43V17.89a13.61,13.61,0,0,0,2.29,8A8.06,8.06,0,0,0,49.68,29h.81a8,8,0,0,0,6.63-3.15c1.44-2,2.17-4.8,2.17-8.43V.52a.38.38,0,0,0-.44-.43H53.93a.38.38,0,0,0-.43.43m-27.3,14q0-8.85,3.59-8.88t3.59,8.88q0,8.86-3.59,8.89T26.2,14.56M29.9,0h-.23a7.77,7.77,0,0,0-6.83,3.94c-1.62,2.58-2.43,6.13-2.43,10.62s.81,8,2.43,10.63a7.76,7.76,0,0,0,6.83,3.93h.23a7.75,7.75,0,0,0,6.83-3.93q2.45-3.89,2.44-10.63c0-4.49-.81-8-2.44-10.62A7.76,7.76,0,0,0,29.9,0M13,17.89q-.65,5.53-3.45,5.56-3.58,0-3.59-8.89T9.52,5.68q2.81,0,3.45,5.55c0,.29.18.44.43.44h4.92c.33,0,.47-.16.41-.46A15.81,15.81,0,0,0,15.81,3,7.66,7.66,0,0,0,9.64,0H9.41A7.76,7.76,0,0,0,2.58,3.94C1,6.52.14,10.07.14,14.56s.82,8,2.44,10.63a7.75,7.75,0,0,0,6.83,3.93h.23a7.64,7.64,0,0,0,6.17-3,15.81,15.81,0,0,0,2.92-8.19c.06-.31-.08-.46-.41-.46H13.4c-.25,0-.39.14-.43.43" style="fill:#0097d9"></path><path d="M212.62,71.67,186.86,97.44l-.33.32L160.44,71.67A16.7,16.7,0,0,1,184,48l2.37,2.58,2.54-2.45.08-.08a16.7,16.7,0,0,1,23.62,23.62m4.87-28.49a23.63,23.63,0,0,0-31-2.09,23.59,23.59,0,0,0-31,35.45l30.89,30.88,5.21-5.06,25.82-25.82a23.63,23.63,0,0,0,0-33.36" style="fill:#e40e20"></path><path d="M202.73,62.82l-3.33,3.37L186.52,78.84,173.67,66.19l-3.35-3.39a3.44,3.44,0,1,1,4.87-4.87l2.17,2.13,9.15,8.88,9.18-8.85L197.86,58v0a3.45,3.45,0,1,1,4.86,4.89M193,53.05l-2.13,2.1-4.36,4.21-4.36-4.21L180,53.05a10.32,10.32,0,0,0-17.61,7.31,10.22,10.22,0,0,0,3,7.29L168.78,71l17.74,17.45,17.72-17.41,3.37-3.41A10.33,10.33,0,0,0,193,53.05" style="fill:#e40e20"></path><polygon points="23.47 35.7 23.47 57.4 7.33 57.4 7.33 35.7 0 35.7 0 108.01 7.33 108.01 7.33 64.62 23.47 64.62 23.47 108.01 30.8 108.01 30.8 35.7 23.47 35.7" style="fill:#0097d9"></polygon><path d="M45.26,108H93.77a3.52,3.52,0,0,0,3.52-3.51v-.21a3.52,3.52,0,0,0-3.52-3.51H45.26V64.62H93.77a3.52,3.52,0,0,0,3.52-3.51V60.9a3.52,3.52,0,0,0-3.52-3.51H45.26V42.93H93.77a3.52,3.52,0,0,0,3.52-3.51v-.21a3.52,3.52,0,0,0-3.52-3.51H37.93V108h7.33Z" style="fill:#0097d9"></path><path d="M125.75,42a10.34,10.34,0,1,1-10.34,10.34A10.36,10.36,0,0,1,125.75,42m-14,22.57L123.6,108l7.1-1.83L120.62,69.26a17.4,17.4,0,0,0,5.13.76,17.67,17.67,0,1,0-14-28.43v-6h-7.34v72.31h7.34Z" style="fill:#0097d9"></path><path d="M317.43,35.88H231.52v37h82.19v27.91H235.08a3.51,3.51,0,0,0-3.51,3.51v.2a3.52,3.52,0,0,0,3.51,3.52h85.86V65.64H238.75V43.11h78.68a3.51,3.51,0,0,0,3.51-3.51v-.21a3.51,3.51,0,0,0-3.51-3.51" style="fill:#0097d9"></path><path d="M320.94,8.42a8.59,8.59,0,0,0-2.78-5.81,8.28,8.28,0,0,0-5.9-2.44h-1.45a8.25,8.25,0,0,0-6.07,2.65A8.54,8.54,0,0,0,302.15,9a8.13,8.13,0,0,0,2.56,5.93,8.38,8.38,0,0,0,6.1,2.55h1.45a2.83,2.83,0,0,1,2.1.87,2.87,2.87,0,0,1,.85,2.11,3.14,3.14,0,0,1-.88,2.19,2.78,2.78,0,0,1-2.07.94h-1.45a2.73,2.73,0,0,1-2.07-.76,2.85,2.85,0,0,1-.8-1.91.42.42,0,0,0-.46-.43h-4.92a.38.38,0,0,0-.43.43,8.66,8.66,0,0,0,2.65,5.89,8.24,8.24,0,0,0,6,2.36h1.45a8.11,8.11,0,0,0,6.13-2.65,8.77,8.77,0,0,0,2.52-6.26,8,8,0,0,0-2.53-5.85,8.36,8.36,0,0,0-6.12-2.52h-1.45a2.62,2.62,0,0,1-2-.85,2.93,2.93,0,0,1-.8-2.07,3.29,3.29,0,0,1,.88-2.15,2.56,2.56,0,0,1,1.93-1h1.45a2.78,2.78,0,0,1,2,.84,2.52,2.52,0,0,1,.85,1.82c0,.3.19.44.44.44h4.95c.29,0,.43-.14.43-.44M288.72,5.76h10.71a.38.38,0,0,0,.44-.43V.61a.39.39,0,0,0-.44-.44H283.37a.39.39,0,0,0-.44.44V28.69a.38.38,0,0,0,.44.43h16.06a.38.38,0,0,0,.44-.43V24a.38.38,0,0,0-.44-.43H288.72V17.37h10.71a.38.38,0,0,0,.44-.43V12.22a.39.39,0,0,0-.44-.44H288.72ZM273,21.86a5.65,5.65,0,0,1-4.53,1.68V5.73A5.55,5.55,0,0,1,273,7.43a6.49,6.49,0,0,1,1.42,4.33v5.78a6.33,6.33,0,0,1-1.4,4.32M278.53,6a12,12,0,0,0-4.44-4.23,12.17,12.17,0,0,0-6-1.55h-5a.38.38,0,0,0-.43.44V28.69a.38.38,0,0,0,.43.43H268a12.27,12.27,0,0,0,6-1.54,12.13,12.13,0,0,0,4.48-4.23,10.74,10.74,0,0,0,1.68-5.81V11.76A10.88,10.88,0,0,0,278.53,6" style="fill:#0097d9"></path></g></g></svg>